<svg id="Group_3342" data-name="Group 3342" xmlns="http://www.w3.org/2000/svg" width="35.975" height="35.975" viewBox="0 0 35.975 35.975">
  <g id="Group_3341" data-name="Group 3341">
    <path id="Path_8" data-name="Path 8" d="M7.38,0H28.6a7.38,7.38,0,0,1,7.38,7.38V28.6a7.38,7.38,0,0,1-7.38,7.38H7.38A7.38,7.38,0,0,1,0,28.6V7.38A7.38,7.38,0,0,1,7.38,0Z" fill="#1dbf21"/>
  </g>
  <path id="Union_4" data-name="Union 4" d="M13.505,25.978c.073-.615.075-.308.163-1.067.072-.621.421-1.529-.512-2.01C5.755,22.261,0,17.395,0,11.486,0,5.142,6.632,0,14.814,0S29.628,5.142,29.628,11.486A10.391,10.391,0,0,1,25.163,19.7a38.523,38.523,0,0,1-5.78,4.134c-1.448,1.1-4.228,2.612-5.372,2.613C13.664,26.451,13.467,26.311,13.505,25.978Z" transform="translate(2.949 5.407)" fill="#fff"/>
  <path id="Union_5" data-name="Union 5" d="M19.042,7.994a.918.918,0,0,1-.918-.918s0-.007,0-.01,0-.007,0-.01V.976s0-.007,0-.01,0-.007,0-.01a.918.918,0,0,1,.918-.918h3.164a.918.918,0,1,1,0,1.836H20V3.1h2.207a.918.918,0,1,1,0,1.836H20V6.158h2.207a.918.918,0,1,1,0,1.836ZM15.12,7.517a.929.929,0,0,1-.3-.246L11.875,3.579V7.056a.937.937,0,1,1-1.875,0V.976q0-.047,0-.093a.91.91,0,0,1,.36-.689A.951.951,0,0,1,11.68.353L15,4.513V.976a.938.938,0,1,1,1.876,0v6.08a.938.938,0,0,1-1.755.461ZM6.25,7.056V.976a.938.938,0,0,1,1.876,0v6.08a.938.938,0,0,1-1.876,0ZM.918,7.994A.918.918,0,0,1,0,7.076s0-.007,0-.01,0-.007,0-.01V.976a.937.937,0,1,1,1.875,0V6.158H4.082a.918.918,0,1,1,0,1.836Z" transform="translate(6.562 13.19)" fill="#1dbf21"/>
</svg>
